{
  "source": "C:\\Users\\Peter\\Desktop\\stuff\\MIUN\\quantitative_research\\video_compression\\videos\\UVG\\Beauty_1920x1080_120fps_420_8bit_YUV.y4m",
  "output": "C:\\Users\\Peter\\Desktop\\stuff\\MIUN\\quantitative_research\\video_compression\\compressed_videos\\UVG\\vp9\\3\\Beauty_1920x1080_120fps_420_8bit_YUV_vp9.webm",
  "codec": "vp9",
  "ok": "[yuv4mpegpipe @ 000001c746965280] Stream #0: not enough frames to estimate rate; consider increasing probesize\nInput #0, yuv4mpegpipe, from 'C:\\Users\\Peter\\Desktop\\stuff\\MIUN\\quantitative_research\\video_compression\\videos\\UVG\\Beauty_1920x1080_120fps_420_8bit_YUV.y4m':\n  Duration: 00:00:05.00, start: 0.000000, bitrate: 2985989 kb/s\n  Stream #0:0: Video: rawvideo (I420 / 0x30323449), yuv420p(progressive), 1920x1080, 120 fps, 120 tbr, 120 tbn\n[out#0/webm @ 000001c746969b00] Codec AVOption b:a (set bitrate (in bits/s)) has not been used for any stream. The most likely reason is either wrong type (e.g. a video option with no video streams) or that it is a private option of some decoder which was not actually used for any stream.\nStream mapping:\n  Stream #0:0 -> #0:0 (rawvideo (native) -> vp9 (libvpx-vp9))\nPress [q] to stop, [?] for help\n[libvpx-vp9 @ 000001c74696c000] v1.15.2-100-g40561f514\nOutput #0, webm, to 'C:\\Users\\Peter\\Desktop\\stuff\\MIUN\\quantitative_research\\video_compression\\compressed_videos\\UVG\\vp9\\3\\Beauty_1920x1080_120fps_420_8bit_YUV_vp9.webm':\n  Metadata:\n    encoder         : Lavf62.3.100\n  Stream #0:0: Video: vp9, yuv420p(tv, progressive), 1920x1080, q=2-31, 3000 kb/s, 120 fps, 1k tbn\n    Metadata:\n      encoder         : Lavc62.11.100 libvpx-vp9\n    Side data:\n      cpb: bitrate max/min/avg: 0/0/0 buffer size: 3000000 vbv_delay: N/A\nframe=    8 fps=0.0 q=48.0 size=       0KiB time=00:00:00.06 bitrate=  57.7kbits/s speed=0.129x elapsed=0:00:00.51    \nframe=   17 fps= 16 q=48.0 size=       0KiB time=00:00:00.14 bitrate=  27.2kbits/s speed=0.137x elapsed=0:00:01.03    \nframe=   24 fps= 16 q=50.0 size=       0KiB time=00:00:00.20 bitrate=  19.2kbits/s speed=0.13x elapsed=0:00:01.54    \nframe=   32 fps= 16 q=50.0 size=       0KiB time=00:00:00.26 bitrate=  14.4kbits/s speed=0.13x elapsed=0:00:02.05    \nframe=   40 fps= 16 q=48.0 size=       0KiB time=00:00:00.33 bitrate=  11.5kbits/s speed=0.13x elapsed=0:00:02.57    \nframe=   47 fps= 15 q=48.0 size=       0KiB time=00:00:00.39 bitrate=   9.8kbits/s speed=0.127x elapsed=0:00:03.08    \nframe=   56 fps= 16 q=48.0 size=       0KiB time=00:00:00.46 bitrate=   8.2kbits/s speed=0.129x elapsed=0:00:03.60    \nframe=   64 fps= 16 q=45.0 size=       0KiB time=00:00:00.53 bitrate=   7.2kbits/s speed=0.13x elapsed=0:00:04.11    \nframe=   74 fps= 16 q=46.0 size=       0KiB time=00:00:00.61 bitrate=   6.2kbits/s speed=0.133x elapsed=0:00:04.63    \nframe=   82 fps= 16 q=47.0 size=       0KiB time=00:00:00.68 bitrate=   5.6kbits/s speed=0.133x elapsed=0:00:05.15    \nframe=   90 fps= 16 q=47.0 size=       0KiB time=00:00:00.75 bitrate=   5.1kbits/s speed=0.132x elapsed=0:00:05.67    \nframe=   99 fps= 16 q=46.0 size=       0KiB time=00:00:00.82 bitrate=   4.7kbits/s speed=0.133x elapsed=0:00:06.19    \nframe=  107 fps= 16 q=49.0 size=       0KiB time=00:00:00.89 bitrate=   4.3kbits/s speed=0.133x elapsed=0:00:06.70    \nframe=  116 fps= 16 q=49.0 size=       0KiB time=00:00:00.96 bitrate=   4.0kbits/s speed=0.134x elapsed=0:00:07.21    \nframe=  125 fps= 16 q=49.0 size=       0KiB time=00:00:01.04 bitrate=   3.7kbits/s speed=0.135x elapsed=0:00:07.72    \nframe=  134 fps= 16 q=47.0 size=     256KiB time=00:00:01.10 bitrate=1892.2kbits/s speed=0.134x elapsed=0:00:08.24    \nframe=  143 fps= 16 q=48.0 size=     256KiB time=00:00:01.19 bitrate=1759.8kbits/s speed=0.136x elapsed=0:00:08.75    \nframe=  153 fps= 16 q=46.0 size=     256KiB time=00:00:01.27 bitrate=1644.8kbits/s speed=0.137x elapsed=0:00:09.27    \nframe=  161 fps= 16 q=45.0 size=     256KiB time=00:00:01.34 bitrate=1563.1kbits/s speed=0.137x elapsed=0:00:09.79    \nframe=  170 fps= 16 q=49.0 size=     256KiB time=00:00:01.41 bitrate=1480.3kbits/s speed=0.137x elapsed=0:00:10.31    \nframe=  178 fps= 16 q=47.0 size=     256KiB time=00:00:01.48 bitrate=1413.8kbits/s speed=0.137x elapsed=0:00:10.82    \nframe=  188 fps= 17 q=47.0 size=     256KiB time=00:00:01.56 bitrate=1338.6kbits/s speed=0.138x elapsed=0:00:11.34    \nframe=  197 fps= 17 q=45.0 size=     256KiB time=00:00:01.64 bitrate=1277.5kbits/s speed=0.138x elapsed=0:00:11.86    \nframe=  205 fps= 17 q=48.0 size=     256KiB time=00:00:01.70 bitrate=1227.6kbits/s speed=0.138x elapsed=0:00:12.38    \nframe=  215 fps= 17 q=50.0 size=     256KiB time=00:00:01.79 bitrate=1170.5kbits/s speed=0.139x elapsed=0:00:12.89    \nframe=  224 fps= 17 q=49.0 size=     256KiB time=00:00:01.86 bitrate=1123.5kbits/s speed=0.139x elapsed=0:00:13.41    \nframe=  233 fps= 17 q=50.0 size=     256KiB time=00:00:01.94 bitrate=1080.1kbits/s speed=0.139x elapsed=0:00:13.93    \nframe=  243 fps= 17 q=50.0 size=     256KiB time=00:00:02.02 bitrate=1035.6kbits/s speed=0.14x elapsed=0:00:14.44    \nframe=  253 fps= 17 q=47.0 size=     256KiB time=00:00:02.10 bitrate= 994.7kbits/s speed=0.141x elapsed=0:00:14.96    \nframe=  263 fps= 17 q=46.0 size=     512KiB time=00:00:02.19 bitrate=1913.8kbits/s speed=0.142x elapsed=0:00:15.48    \nframe=  272 fps= 17 q=29.0 size=     512KiB time=00:00:02.26 bitrate=1850.4kbits/s speed=0.142x elapsed=0:00:15.98    \nframe=  282 fps= 17 q=53.0 size=     512KiB time=00:00:02.35 bitrate=1784.8kbits/s speed=0.142x elapsed=0:00:16.51    \nframe=  291 fps= 17 q=50.0 size=     512KiB time=00:00:02.42 bitrate=1729.6kbits/s speed=0.142x elapsed=0:00:17.02    \nframe=  301 fps= 17 q=47.0 size=     512KiB time=00:00:02.50 bitrate=1672.1kbits/s speed=0.143x elapsed=0:00:17.54    \nframe=  309 fps= 17 q=47.0 size=     512KiB time=00:00:02.57 bitrate=1628.9kbits/s speed=0.143x elapsed=0:00:18.05    \nframe=  318 fps= 17 q=48.0 size=     512KiB time=00:00:02.65 bitrate=1582.8kbits/s speed=0.143x elapsed=0:00:18.57    \nframe=  329 fps= 17 q=49.0 size=     512KiB time=00:00:02.74 bitrate=1529.8kbits/s speed=0.144x elapsed=0:00:19.08    \nframe=  338 fps= 17 q=48.0 size=     512KiB time=00:00:02.81 bitrate=1489.1kbits/s speed=0.144x elapsed=0:00:19.59    \nframe=  348 fps= 17 q=47.0 size=     512KiB time=00:00:02.90 bitrate=1446.3kbits/s speed=0.144x elapsed=0:00:20.12    \nframe=  357 fps= 17 q=49.0 size=     512KiB time=00:00:02.97 bitrate=1409.9kbits/s speed=0.144x elapsed=0:00:20.63    \nframe=  367 fps= 17 q=49.0 size=     512KiB time=00:00:03.05 bitrate=1371.4kbits/s speed=0.145x elapsed=0:00:21.14    \nframe=  376 fps= 17 q=47.0 size=     512KiB time=00:00:03.13 bitrate=1338.6kbits/s speed=0.145x elapsed=0:00:21.67    \nframe=  385 fps= 17 q=29.0 size=     512KiB time=00:00:03.20 bitrate=1307.3kbits/s speed=0.145x elapsed=0:00:22.18    \nframe=  397 fps= 17 q=51.0 size=    1024KiB time=00:00:03.30 bitrate=2535.6kbits/s speed=0.146x elapsed=0:00:22.70    \nframe=  407 fps= 18 q=49.0 size=    1024KiB time=00:00:03.39 bitrate=2473.3kbits/s speed=0.146x elapsed=0:00:23.21    \nframe=  415 fps= 17 q=29.0 size=    1024KiB time=00:00:03.45 bitrate=2425.6kbits/s speed=0.146x elapsed=0:00:23.72    \nframe=  425 fps= 18 q=49.0 size=    1024KiB time=00:00:03.54 bitrate=2368.5kbits/s speed=0.146x elapsed=0:00:24.24    \nframe=  433 fps= 17 q=49.0 size=    1024KiB time=00:00:03.60 bitrate=2324.8kbits/s speed=0.146x elapsed=0:00:24.75    \nframe=  444 fps= 18 q=51.0 size=    1024KiB time=00:00:03.70 bitrate=2267.2kbits/s speed=0.146x elapsed=0:00:25.27    \nframe=  453 fps= 18 q=49.0 size=    1024KiB time=00:00:03.77 bitrate=2222.1kbits/s speed=0.146x elapsed=0:00:25.80    \nframe=  461 fps= 18 q=48.0 size=    1024KiB time=00:00:03.84 bitrate=2183.6kbits/s speed=0.146x elapsed=0:00:26.32    \nframe=  472 fps= 18 q=46.0 size=    1024KiB time=00:00:03.93 bitrate=2132.7kbits/s speed=0.147x elapsed=0:00:26.84    \nframe=  481 fps= 18 q=47.0 size=    1024KiB time=00:00:04.00 bitrate=2092.8kbits/s speed=0.147x elapsed=0:00:27.35    \nframe=  489 fps= 18 q=48.0 size=    1024KiB time=00:00:04.07 bitrate=2058.6kbits/s speed=0.146x elapsed=0:00:27.86    \nframe=  499 fps= 18 q=50.0 size=    1024KiB time=00:00:04.15 bitrate=2017.3kbits/s speed=0.147x elapsed=0:00:28.38    \nframe=  507 fps= 18 q=47.0 size=    1024KiB time=00:00:04.22 bitrate=1985.5kbits/s speed=0.146x elapsed=0:00:28.90    \nframe=  516 fps= 18 q=47.0 size=    1280KiB time=00:00:04.30 bitrate=2438.5kbits/s speed=0.146x elapsed=0:00:29.41    \nframe=  527 fps= 18 q=47.0 size=    1280KiB time=00:00:04.39 bitrate=2387.6kbits/s speed=0.147x elapsed=0:00:29.93    \nframe=  535 fps= 18 q=47.0 size=    1280KiB time=00:00:04.45 bitrate=2351.9kbits/s speed=0.146x elapsed=0:00:30.44    \nframe=  543 fps= 18 q=27.0 size=    1280KiB time=00:00:04.52 bitrate=2317.3kbits/s speed=0.146x elapsed=0:00:30.96    \nframe=  553 fps= 18 q=47.0 size=    1280KiB time=00:00:04.60 bitrate=2275.4kbits/s speed=0.146x elapsed=0:00:31.47    \nframe=  562 fps= 18 q=47.0 size=    1280KiB time=00:00:04.68 bitrate=2239.0kbits/s speed=0.146x elapsed=0:00:31.99    \nframe=  572 fps= 18 q=48.0 size=    1280KiB time=00:00:04.76 bitrate=2199.8kbits/s speed=0.147x elapsed=0:00:32.51    \nframe=  576 fps= 17 q=47.0 size=    1280KiB time=00:00:04.80 bitrate=2184.5kbits/s speed=0.145x elapsed=0:00:33.02    \nframe=  576 fps= 17 q=47.0 size=    1280KiB time=00:00:04.80 bitrate=2184.5kbits/s speed=0.143x elapsed=0:00:33.54    \nframe=  576 fps= 17 q=47.0 size=    1280KiB time=00:00:04.80 bitrate=2184.5kbits/s speed=0.141x elapsed=0:00:34.05    \n[out#0/webm @ 000001c746969b00] video:1731KiB audio:0KiB subtitle:0KiB other streams:0KiB global headers:0KiB muxing overhead: 0.273737%\nframe=  600 fps= 18 q=47.0 Lsize=    1735KiB time=00:00:05.00 bitrate=2843.2kbits/s speed=0.147x elapsed=0:00:34.06    \n",
  "seconds": 34.141523361206055,
  "probe_out": {}
}